<svg width="19" height="20" viewBox="0 0 19 20" fill="none"
    xmlns="http://www.w3.org/2000/svg">
    <path d="M1.24493 13.5977C2.50187 13.3408 3.65561 12.7202 4.56278 11.8131C5.46994 10.9059 6.09053 9.75217 6.34743 8.49523L5.12284 8.24482C4.91503 9.2618 4.41293 10.1953 3.67896 10.9293C2.94498 11.6632 2.01149 12.1653 0.994512 12.3731L1.24493 13.5977ZM1.24493 13.0694C1.30497 13.0835 1.35866 13.117 1.39763 13.1648C1.4366 13.2126 1.45866 13.2719 1.46035 13.3336C1.45877 13.3953 1.43672 13.4548 1.39764 13.5026C1.35857 13.5504 1.30511 13.5839 1.24493 13.5977L0.994512 12.3731C-0.0509049 12.5869 -0.0509049 14.0802 0.994512 14.294L1.24493 13.0694ZM6.34743 18.1719C6.09053 16.915 5.46994 15.7612 4.56278 14.8541C3.65561 13.9469 2.50187 13.3263 1.24493 13.0694L0.994512 14.294C2.01149 14.5018 2.94498 15.0039 3.67896 15.7379C4.41293 16.4718 4.91503 17.4053 5.12284 18.4223L6.34743 18.1719ZM5.81909 18.1719C5.83315 18.1119 5.86669 18.0582 5.91448 18.0192C5.96227 17.9802 6.02162 17.9582 6.08326 17.9565C6.145 17.9581 6.20446 17.9801 6.25229 18.0192C6.30011 18.0583 6.334 18.1121 6.34784 18.1723L5.12284 18.4223C5.33659 19.4677 6.82993 19.4677 7.04368 18.4223L5.81909 18.1719ZM10.9216 13.0694C9.66465 13.3263 8.51091 13.9469 7.60375 14.8541C6.69658 15.7612 6.07599 16.915 5.81909 18.1719L7.04368 18.4223C7.25149 17.4053 7.75359 16.4718 8.48757 15.7379C9.22154 15.0039 10.155 14.5018 11.172 14.294L10.9216 13.0694ZM10.9216 13.5977C10.8616 13.5837 10.8079 13.5501 10.7689 13.5023C10.7299 13.4546 10.7079 13.3952 10.7062 13.3336C10.7079 13.2719 10.73 13.2125 10.7691 13.1647C10.8081 13.1169 10.8619 13.083 10.922 13.069L11.172 14.294C12.2174 14.0802 12.2174 12.5869 11.172 12.3731L10.9216 13.5977ZM5.81909 8.49523C6.07599 9.75217 6.69658 10.9059 7.60375 11.8131C8.51091 12.7202 9.66465 13.3408 10.9216 13.5977L11.172 12.3731C10.155 12.1653 9.22154 11.6632 8.48757 10.9293C7.75359 10.1953 7.25149 9.2618 7.04368 8.24482L5.81909 8.49523ZM7.04368 8.24482C6.82993 7.1994 5.33659 7.1994 5.12284 8.24482L6.34784 8.49482C6.33385 8.555 6.30028 8.60884 6.2524 8.6479C6.20452 8.68696 6.14503 8.70903 6.08326 8.71065C6.02156 8.70894 5.96217 8.68683 5.91438 8.64777C5.86658 8.60872 5.83307 8.55493 5.81909 8.49482L7.04368 8.24482ZM12.1624 8.92107C12.9651 8.75712 13.7019 8.36086 14.2812 7.78155C14.8606 7.20224 15.2568 6.46543 15.4208 5.66273L14.1962 5.41273C14.0813 5.97534 13.8035 6.49176 13.3975 6.8978C12.9915 7.30383 12.475 7.58157 11.9124 7.69648L12.1624 8.92107ZM12.1624 7.74607C12.802 7.87648 12.802 8.79065 12.1624 8.92107L11.9124 7.69648C11.2191 7.83815 11.2191 8.82898 11.9124 8.97065L12.1624 7.74607ZM15.4208 11.0044C15.2568 10.2017 14.8606 9.46489 14.2812 8.88558C13.7019 8.30627 12.9651 7.91001 12.1624 7.74607L11.9124 8.97065C12.475 9.08556 12.9915 9.3633 13.3975 9.76933C13.8035 10.1754 14.0813 10.6918 14.1962 11.2544L15.4208 11.0044ZM14.2458 11.0044C14.3762 10.3648 15.2903 10.3648 15.4208 11.0044L14.1962 11.2544C14.3378 11.9477 15.3287 11.9477 15.4703 11.2544L14.2458 11.0044ZM17.5041 7.74607C16.7014 7.91001 15.9646 8.30627 15.3853 8.88558C14.806 9.46489 14.4097 10.2017 14.2458 11.0044L15.4703 11.2544C15.5853 10.6918 15.863 10.1754 16.269 9.76933C16.6751 9.3633 17.1915 9.08556 17.7541 8.97065L17.5041 7.74607ZM17.5041 8.92107C16.8645 8.79065 16.8645 7.87648 17.5041 7.74607L17.7541 8.97065C18.4474 8.82898 18.4474 7.83815 17.7541 7.69648L17.5041 8.92107ZM14.2458 5.66273C14.4097 6.46543 14.806 7.20224 15.3853 7.78155C15.9646 8.36086 16.7014 8.75712 17.5041 8.92107L17.7541 7.69648C17.1915 7.58157 16.6751 7.30383 16.269 6.8978C15.863 6.49176 15.5853 5.97534 15.4703 5.41273L14.2458 5.66273ZM15.4703 5.41273C15.3287 4.7194 14.3378 4.7194 14.1962 5.41273L15.4208 5.66273C15.2899 6.30232 14.3762 6.30232 14.2458 5.66273L15.4703 5.41273ZM8.60951 1.07815C8.69618 0.653149 9.30368 0.653149 9.39076 1.07815C9.4846 1.53749 9.71136 1.95912 10.0429 2.29062C10.3744 2.62213 10.796 2.8489 11.2553 2.94273C11.6803 3.02982 11.6803 3.63732 11.2553 3.7244C10.796 3.81823 10.3744 4.045 10.0429 4.37651C9.71136 4.70802 9.4846 5.12965 9.39076 5.58898C9.30368 6.01398 8.69618 6.01398 8.60951 5.58898C8.51565 5.12959 8.28882 4.70792 7.95723 4.37641C7.62564 4.04489 7.20392 3.81816 6.74451 3.7244C6.31951 3.63732 6.31951 3.02982 6.74451 2.94273C7.20392 2.84897 7.62564 2.62224 7.95723 2.29072C8.28882 1.95921 8.51565 1.53754 8.60951 1.07815Z" fill="currentColor"/>
</svg>
