<svg width="14" height="14" viewBox="0 0 14 14" fill="none"
    xmlns="http://www.w3.org/2000/svg">
    <path d="M10 4V2.5C10 2.10218 9.84196 1.72064 9.56066 1.43934C9.27935 1.15804 8.89782 1 8.5 1H2.5C2.10218 1 1.72064 1.15804 1.43934 1.43934C1.15804 1.72064 1 2.10218 1 2.5V8.5C1 8.89782 1.15804 9.27935 1.43934 9.56066C1.72064 9.84196 2.10218 10 2.5 10H4M4 5.5C4 5.10217 4.15804 4.72064 4.43934 4.43934C4.72064 4.15804 5.10217 4 5.5 4H11.5C11.8978 4 12.2794 4.15804 12.5607 4.43934C12.842 4.72064 13 5.10217 13 5.5V11.5C13 11.8978 12.842 12.2794 12.5607 12.5607C12.2794 12.842 11.8978 13 11.5 13H5.5C5.10217 13 4.72064 12.842 4.43934 12.5607C4.15804 12.2794 4 11.8978 4 11.5V5.5Z" stroke="currentColor" stroke-width="1.5" stroke-linecap="round" stroke-linejoin="round"/>
</svg>
