<svg width="14" height="16" viewBox="0 0 14 16" fill="none"
    xmlns="http://www.w3.org/2000/svg">
    <path d="M1 4.25H13M5.5 7.25V11.75M8.5 7.25V11.75M1.75 4.25L2.5 13.25C2.5 13.6478 2.65804 14.0294 2.93934 14.3107C3.22064 14.592 3.60218 14.75 4 14.75H10C10.3978 14.75 10.7794 14.592 11.0607 14.3107C11.342 14.0294 11.5 13.6478 11.5 13.25L12.25 4.25M4.75 4.25V2C4.75 1.80109 4.82902 1.61032 4.96967 1.46967C5.11032 1.32902 5.30109 1.25 5.5 1.25H8.5C8.69891 1.25 8.88968 1.32902 9.03033 1.46967C9.17098 1.61032 9.25 1.80109 9.25 2V4.25" stroke="currentColor" stroke-width="1.5" stroke-linecap="round" stroke-linejoin="round"/>
</svg>
