<svg width="19" height="8" viewBox="0 0 19 8" fill="none"
    xmlns="http://www.w3.org/2000/svg">
    <path d="M3.444 7.144C2.844 7.144 2.324 7.008 1.884 6.736C1.452 6.464 1.116 6.08 0.876 5.584C0.644 5.08 0.528 4.492 0.528 3.82C0.528 3.148 0.644 2.564 0.876 2.068C1.116 1.572 1.448 1.188 1.872 0.916C2.304 0.635999 2.812 0.495999 3.396 0.495999C3.948 0.495999 4.436 0.628 4.86 0.892C5.284 1.148 5.612 1.524 5.844 2.02C6.084 2.516 6.204 3.12 6.204 3.832V4.132H1.584C1.624 4.812 1.804 5.324 2.124 5.668C2.452 6.012 2.892 6.184 3.444 6.184C3.86 6.184 4.2 6.088 4.464 5.896C4.736 5.696 4.924 5.436 5.028 5.116L6.108 5.2C5.94 5.768 5.62 6.236 5.148 6.604C4.684 6.964 4.116 7.144 3.444 7.144ZM1.584 3.244H5.1C5.052 2.628 4.872 2.176 4.56 1.888C4.256 1.6 3.868 1.456 3.396 1.456C2.908 1.456 2.504 1.608 2.184 1.912C1.872 2.208 1.672 2.652 1.584 3.244ZM9.70538 7.144C9.13738 7.144 8.65338 7.052 8.25338 6.868C7.86138 6.684 7.55338 6.432 7.32938 6.112C7.11338 5.784 6.98938 5.412 6.95738 4.996L8.01338 4.924C8.07738 5.308 8.24138 5.616 8.50538 5.848C8.76938 6.072 9.16938 6.184 9.70538 6.184C10.1374 6.184 10.4814 6.116 10.7374 5.98C11.0014 5.836 11.1334 5.608 11.1334 5.296C11.1334 5.128 11.0934 4.988 11.0134 4.876C10.9334 4.764 10.7774 4.668 10.5454 4.588C10.3134 4.5 9.96938 4.416 9.51338 4.336C8.90538 4.224 8.42538 4.088 8.07338 3.928C7.72938 3.76 7.48138 3.556 7.32938 3.316C7.18538 3.068 7.11338 2.776 7.11338 2.44C7.11338 1.872 7.32138 1.408 7.73738 1.048C8.15338 0.679999 8.74538 0.495999 9.51338 0.495999C10.0334 0.495999 10.4694 0.592 10.8214 0.784C11.1814 0.968 11.4614 1.216 11.6614 1.528C11.8694 1.832 12.0054 2.168 12.0694 2.536L11.0134 2.608C10.9654 2.384 10.8774 2.188 10.7494 2.02C10.6214 1.844 10.4534 1.708 10.2454 1.612C10.0374 1.508 9.78938 1.456 9.50138 1.456C9.04538 1.456 8.70938 1.544 8.49338 1.72C8.27738 1.896 8.16938 2.12 8.16938 2.392C8.16938 2.6 8.21738 2.772 8.31338 2.908C8.41738 3.036 8.58138 3.144 8.80538 3.232C9.02938 3.312 9.32938 3.384 9.70538 3.448C10.3534 3.56 10.8574 3.696 11.2174 3.856C11.5774 4.016 11.8294 4.212 11.9734 4.444C12.1174 4.676 12.1894 4.96 12.1894 5.296C12.1894 5.688 12.0774 6.024 11.8534 6.304C11.6374 6.576 11.3414 6.784 10.9654 6.928C10.5974 7.072 10.1774 7.144 9.70538 7.144ZM15.8692 7.144C15.2772 7.144 14.7612 7.008 14.3212 6.736C13.8892 6.464 13.5532 6.08 13.3132 5.584C13.0732 5.08 12.9532 4.492 12.9532 3.82C12.9532 3.148 13.0732 2.564 13.3132 2.068C13.5532 1.572 13.8892 1.188 14.3212 0.916C14.7612 0.635999 15.2772 0.495999 15.8692 0.495999C16.3572 0.495999 16.7892 0.583999 17.1652 0.76C17.5492 0.928 17.8612 1.176 18.1012 1.504C18.3412 1.832 18.4972 2.232 18.5692 2.704L17.5132 2.776C17.4412 2.352 17.2572 2.028 16.9612 1.804C16.6652 1.572 16.3012 1.456 15.8692 1.456C15.2852 1.456 14.8292 1.668 14.5012 2.092C14.1732 2.508 14.0092 3.084 14.0092 3.82C14.0092 4.556 14.1732 5.136 14.5012 5.56C14.8292 5.976 15.2852 6.184 15.8692 6.184C16.3012 6.184 16.6652 6.064 16.9612 5.824C17.2572 5.584 17.4412 5.224 17.5132 4.744L18.5692 4.816C18.4972 5.288 18.3412 5.7 18.1012 6.052C17.8612 6.396 17.5492 6.664 17.1652 6.856C16.7892 7.048 16.3572 7.144 15.8692 7.144Z" fill="currentColor"/>
</svg>
