<svg width="14" height="14" viewBox="0 0 14 14" fill="none"
    xmlns="http://www.w3.org/2000/svg">
    <path d="M5 9L9 5M6.33333 3.00004L6.642 2.64271C7.2672 2.01759 8.11513 1.66644 8.99924 1.6665C9.88335 1.66657 10.7312 2.01784 11.3563 2.64304C11.9814 3.26824 12.3326 4.11617 12.3325 5.00028C12.3325 5.88439 11.9812 6.73226 11.356 7.35737L11 7.66671M7.6666 11L7.40193 11.356C6.76943 11.9815 5.91579 12.3323 5.02627 12.3323C4.13674 12.3323 3.2831 11.9815 2.6506 11.356C2.33884 11.0477 2.09133 10.6807 1.92241 10.2761C1.75348 9.87151 1.6665 9.43743 1.6665 8.999C1.6665 8.56057 1.75348 8.12649 1.92241 7.7219C2.09133 7.31732 2.33884 6.95027 2.6506 6.642L2.99993 6.33333" stroke="currentColor" stroke-width="1.44" stroke-linecap="round" stroke-linejoin="round"/>
</svg>
