<svg width="54" height="54" viewBox="0 0 54 54" fill="none"
    xmlns="http://www.w3.org/2000/svg">
    <path d="M26.9997 0.333252C26.2924 0.333252 25.6142 0.614203 25.1141 1.1143C24.614 1.6144 24.333 2.29267 24.333 2.99992V8.33325C24.333 9.0405 24.614 9.71877 25.1141 10.2189C25.6142 10.719 26.2924 10.9999 26.9997 10.9999C27.7069 10.9999 28.3852 10.719 28.8853 10.2189C29.3854 9.71877 29.6663 9.0405 29.6663 8.33325V2.99992C29.6663 2.29267 29.3854 1.6144 28.8853 1.1143C28.3852 0.614203 27.7069 0.333252 26.9997 0.333252ZM26.9997 42.9999C26.2924 42.9999 25.6142 43.2809 25.1141 43.781C24.614 44.2811 24.333 44.9593 24.333 45.6666V50.9999C24.333 51.7072 24.614 52.3854 25.1141 52.8855C25.6142 53.3856 26.2924 53.6666 26.9997 53.6666C27.7069 53.6666 28.3852 53.3856 28.8853 52.8855C29.3854 52.3854 29.6663 51.7072 29.6663 50.9999V45.6666C29.6663 44.9593 29.3854 44.2811 28.8853 43.781C28.3852 43.2809 27.7069 42.9999 26.9997 42.9999ZM50.9997 24.3333H45.6663C44.9591 24.3333 44.2808 24.6142 43.7807 25.1143C43.2806 25.6144 42.9997 26.2927 42.9997 26.9999C42.9997 27.7072 43.2806 28.3854 43.7807 28.8855C44.2808 29.3856 44.9591 29.6666 45.6663 29.6666H50.9997C51.7069 29.6666 52.3852 29.3856 52.8853 28.8855C53.3854 28.3854 53.6663 27.7072 53.6663 26.9999C53.6663 26.2927 53.3854 25.6144 52.8853 25.1143C52.3852 24.6142 51.7069 24.3333 50.9997 24.3333ZM10.9997 26.9999C10.9997 26.2927 10.7187 25.6144 10.2186 25.1143C9.71853 24.6142 9.04025 24.3333 8.33301 24.3333H2.99967C2.29243 24.3333 1.61415 24.6142 1.11406 25.1143C0.613959 25.6144 0.333008 26.2927 0.333008 26.9999C0.333008 27.7072 0.613959 28.3854 1.11406 28.8855C1.61415 29.3856 2.29243 29.6666 2.99967 29.6666H8.33301C9.04025 29.6666 9.71853 29.3856 10.2186 28.8855C10.7187 28.3854 10.9997 27.7072 10.9997 26.9999ZM40.8557 18.9999C41.0899 19.4057 41.427 19.7426 41.8329 19.9766C42.2387 20.2107 42.6991 20.3337 43.1677 20.3333C43.6362 20.3337 44.0964 20.2094 44.501 19.9732L49.1143 17.3066C49.4287 17.1374 49.7058 16.9069 49.9294 16.6286C50.153 16.3503 50.3185 16.03 50.4159 15.6866C50.5134 15.3432 50.541 14.9838 50.497 14.6295C50.4529 14.2753 50.3383 13.9335 50.1597 13.6244C49.9811 13.3153 49.7423 13.0452 49.4575 12.8301C49.1726 12.615 48.8474 12.4593 48.5012 12.3723C48.1551 12.2852 47.7949 12.2685 47.4422 12.3232C47.0894 12.3778 46.7512 12.5028 46.4477 12.6906L41.8343 15.3573C41.5306 15.5319 41.2643 15.7647 41.0506 16.0423C40.8369 16.3199 40.68 16.637 40.5889 16.9752C40.4977 17.3135 40.4742 17.6665 40.5195 18.0139C40.5648 18.3613 40.6808 18.6963 40.8557 18.9999ZM13.1437 34.9999C12.9686 34.6963 12.7353 34.4302 12.4573 34.2168C12.1793 34.0034 11.8619 33.8469 11.5233 33.7562C11.1848 33.6656 10.8317 33.6426 10.4842 33.6885C10.1367 33.7344 9.80172 33.8484 9.49834 34.0239L4.88234 36.6906C4.56801 36.8597 4.29083 37.0903 4.06725 37.3686C3.84366 37.6468 3.67823 37.9671 3.58074 38.3105C3.48325 38.6539 3.4557 39.0134 3.49971 39.3676C3.54373 39.7219 3.65842 40.0637 3.83698 40.3728C4.01554 40.6819 4.25434 40.9519 4.53923 41.167C4.82411 41.3821 5.14928 41.5378 5.49545 41.6249C5.84163 41.712 6.20177 41.7287 6.55451 41.674C6.90726 41.6193 7.24544 41.4944 7.54901 41.3066L12.165 38.6399C12.7772 38.2867 13.2241 37.705 13.4077 37.0225C13.5912 36.3399 13.4962 35.6125 13.1437 34.9999ZM34.9997 13.1439C35.3031 13.3189 35.638 13.4324 35.9853 13.4779C36.3326 13.5234 36.6855 13.5001 37.0237 13.4092C37.362 13.3183 37.6791 13.1617 37.9568 12.9482C38.2345 12.7348 38.4675 12.4687 38.6423 12.1653L41.309 7.54925C41.4869 7.24586 41.603 6.91029 41.6506 6.56185C41.6982 6.21341 41.6765 5.85899 41.5866 5.51899C41.4967 5.179 41.3405 4.86014 41.1268 4.58077C40.9132 4.30141 40.6464 4.06706 40.3419 3.89122C40.0373 3.71537 39.701 3.60151 39.3522 3.55618C39.0035 3.51085 38.6492 3.53495 38.3098 3.62709C37.9704 3.71924 37.6526 3.8776 37.3747 4.09307C37.0967 4.30854 36.8642 4.57686 36.6903 4.88259L34.0237 9.49858C33.8482 9.80197 33.7342 10.137 33.6883 10.4844C33.6423 10.8319 33.6653 11.185 33.756 11.5236C33.8466 11.8621 34.0031 12.1795 34.2165 12.4575C34.4299 12.7356 34.6961 12.9688 34.9997 13.1439ZM4.88234 17.3066L9.49834 19.9732C9.90297 20.2094 10.3632 20.3337 10.8317 20.3333C11.4187 20.3332 11.9893 20.1395 12.455 19.7822C12.9207 19.4248 13.2554 18.9238 13.4074 18.3568C13.5593 17.7898 13.5199 17.1885 13.2953 16.6462C13.0706 16.1038 12.6734 15.6508 12.165 15.3573L7.54901 12.6906C7.24544 12.5028 6.90726 12.3778 6.55451 12.3232C6.20177 12.2685 5.84163 12.2852 5.49545 12.3723C5.14928 12.4593 4.82411 12.615 4.53923 12.8301C4.25434 13.0452 4.01554 13.3153 3.83698 13.6244C3.65842 13.9335 3.54373 14.2753 3.49971 14.6295C3.4557 14.9838 3.48325 15.3432 3.58074 15.6866C3.67823 16.03 3.84366 16.3503 4.06725 16.6286C4.29083 16.9069 4.56801 17.1374 4.88234 17.3066ZM18.9997 40.8532C18.6962 40.6783 18.3613 40.5648 18.014 40.5193C17.6667 40.4738 17.3139 40.4971 16.9756 40.588C16.6373 40.6789 16.3203 40.8355 16.0426 41.0489C15.7648 41.2624 15.5319 41.5284 15.357 41.8319L12.6903 46.4506C12.3423 47.0627 12.2505 47.7877 12.435 48.4673C12.6195 49.1469 13.0653 49.7259 13.6752 50.078C14.285 50.4301 15.0093 50.5267 15.6901 50.3467C16.3709 50.1667 16.9529 49.7247 17.309 49.1173L19.9757 44.4986C20.3293 43.8861 20.4251 43.1582 20.2421 42.4751C20.059 41.792 19.6121 41.2069 18.9997 40.8532ZM49.117 36.6906L44.501 34.0239C44.1974 33.8361 43.8593 33.7112 43.5065 33.6565C43.1538 33.6018 42.7936 33.6185 42.4475 33.7056C42.1013 33.7927 41.7761 33.9484 41.4912 34.1635C41.2063 34.3786 40.9675 34.6487 40.789 34.9577C40.6104 35.2668 40.4957 35.6086 40.4517 35.9629C40.4077 36.3171 40.4352 36.6766 40.5327 37.02C40.6302 37.3634 40.7957 37.6837 41.0192 37.9619C41.2428 38.2402 41.52 38.4708 41.8343 38.6399L46.4503 41.3066C46.8542 41.5423 47.3134 41.6665 47.781 41.6666C48.3682 41.6671 48.9392 41.4739 49.4054 41.1167C49.8715 40.7596 50.2067 40.2585 50.359 39.6914C50.5113 39.1243 50.4721 38.5227 50.2475 37.9801C50.0229 37.4375 49.6255 36.9842 49.117 36.6906ZM38.6423 41.8319C38.4685 41.5262 38.2359 41.2579 37.958 41.0424C37.6801 40.8269 37.3622 40.6686 37.0229 40.5764C36.6835 40.4843 36.3292 40.4602 35.9804 40.5055C35.6317 40.5508 35.2954 40.6647 34.9908 40.8405C34.6862 41.0164 34.4195 41.2507 34.2058 41.5301C33.9922 41.8095 33.836 42.1283 33.7461 42.4683C33.6562 42.8083 33.6344 43.1627 33.6821 43.5112C33.7297 43.8596 33.8458 44.1952 34.0237 44.4986L36.6903 49.1173C36.8642 49.423 37.0967 49.6913 37.3747 49.9068C37.6526 50.1222 37.9704 50.2806 38.3098 50.3727C38.6492 50.4649 39.0035 50.489 39.3522 50.4437C39.701 50.3983 40.0373 50.2845 40.3419 50.1086C40.6464 49.9328 40.9132 49.6984 41.1268 49.4191C41.3405 49.1397 41.4967 48.8208 41.5866 48.4808C41.6765 48.1408 41.6982 47.7864 41.6506 47.438C41.603 47.0895 41.4869 46.754 41.309 46.4506L38.6423 41.8319Z" fill="currentColor"/>
</svg>
