<svg width="27" height="25" viewBox="0 0 27 25" fill="none"
    xmlns="http://www.w3.org/2000/svg">
    <path d="M24.5 6H20.5V2C20.5 1.46957 20.2893 0.960859 19.9142 0.585786C19.5391 0.210714 19.0304 0 18.5 0H2.5C1.96957 0 1.46086 0.210714 1.08579 0.585786C0.710714 0.960859 0.5 1.46957 0.5 2V18C0.500587 18.1881 0.554234 18.3723 0.654778 18.5313C0.755321 18.6903 0.898683 18.8177 1.06839 18.8989C1.2381 18.9801 1.42728 19.0118 1.61418 18.9903C1.80108 18.9689 1.97814 18.8951 2.125 18.7775L6.5 15.25V19C6.5 19.5304 6.71071 20.0391 7.08579 20.4142C7.46086 20.7893 7.96957 21 8.5 21H20.1987L24.875 24.7775C25.0519 24.9206 25.2724 24.9991 25.5 25C25.7652 25 26.0196 24.8946 26.2071 24.7071C26.3946 24.5196 26.5 24.2652 26.5 24V8C26.5 7.46957 26.2893 6.96086 25.9142 6.58579C25.5391 6.21071 25.0304 6 24.5 6ZM5.81875 13.2225L2.5 15.9062V2H18.5V13H6.4475C6.21863 13 5.9967 13.0786 5.81875 13.2225ZM24.5 21.9062L21.1812 19.2225C21.0043 19.0794 20.7838 19.0009 20.5562 19H8.5V15H18.5C19.0304 15 19.5391 14.7893 19.9142 14.4142C20.2893 14.0391 20.5 13.5304 20.5 13V8H24.5V21.9062Z" fill="currentColor"/>
</svg>
