<svg width="20" height="20" viewBox="0 0 20 20" fill="none"
    xmlns="http://www.w3.org/2000/svg">
    <path fill-rule="evenodd" clip-rule="evenodd" d="M9.80547 2.94002C6.01378 2.94002 2.94 6.01379 2.94 9.80548C2.94 13.5972 6.01378 16.6709 9.80547 16.6709C13.5972 16.6709 16.6709 13.5972 16.6709 9.80548C16.6709 6.01379 13.5972 2.94002 9.80547 2.94002ZM1.69 9.80548C1.69 5.32344 5.32342 1.69002 9.80547 1.69002C14.2875 1.69002 17.9209 5.32344 17.9209 9.80548C17.9209 14.2875 14.2875 17.9209 9.80547 17.9209C5.32342 17.9209 1.69 14.2875 1.69 9.80548Z" fill="currentColor"/>
    <path fill-rule="evenodd" clip-rule="evenodd" d="M14.5727 14.9629C14.8165 14.7185 15.2122 14.718 15.4566 14.9617L18.3933 17.8908C18.6377 18.1346 18.6382 18.5303 18.3944 18.7747C18.1507 19.0191 17.7549 19.0196 17.5106 18.7758L14.5739 15.8468C14.3295 15.603 14.329 15.2073 14.5727 14.9629Z" fill="currentColor"/>
</svg>
