<svg width="24" height="24" viewBox="0 0 24 24" fill="none"
    xmlns="http://www.w3.org/2000/svg">
    <path fill-rule="evenodd" clip-rule="evenodd" d="M4.05546 20.9445C3.53973 20.4288 3.25 19.7293 3.25 19L3.25 12C3.25 11.2707 3.53973 10.5712 4.05546 10.0555C4.57118 9.53973 5.27065 9.25 6 9.25H8C8.41421 9.25 8.75 9.58579 8.75 10C8.75 10.4142 8.41421 10.75 8 10.75H6C5.66848 10.75 5.35054 10.8817 5.11612 11.1161C4.8817 11.3505 4.75 11.6685 4.75 12L4.75 19C4.75 19.3315 4.8817 19.6495 5.11612 19.8839C5.35054 20.1183 5.66848 20.25 6 20.25H18C18.3315 20.25 18.6495 20.1183 18.8839 19.8839C19.1183 19.6495 19.25 19.3315 19.25 19V12C19.25 11.6685 19.1183 11.3505 18.8839 11.1161C18.6495 10.8817 18.3315 10.75 18 10.75L16 10.75C15.5858 10.75 15.25 10.4142 15.25 10C15.25 9.58579 15.5858 9.25 16 9.25H18C18.7293 9.25 19.4288 9.53973 19.9445 10.0555C20.4603 10.5712 20.75 11.2707 20.75 12V19C20.75 19.7293 20.4603 20.4288 19.9445 20.9445C19.4288 21.4603 18.7293 21.75 18 21.75H6C5.27066 21.75 4.57118 21.4603 4.05546 20.9445Z" fill="currentColor"/>
    <path fill-rule="evenodd" clip-rule="evenodd" d="M8.46967 6.53033C8.17678 6.23744 8.17678 5.76256 8.46967 5.46967L11.4697 2.46967C11.7626 2.17678 12.2374 2.17678 12.5303 2.46967L15.5303 5.46967C15.8232 5.76256 15.8232 6.23744 15.5303 6.53033C15.2374 6.82322 14.7626 6.82322 14.4697 6.53033L12.75 4.81066V17C12.75 17.4142 12.4142 17.75 12 17.75C11.5858 17.75 11.25 17.4142 11.25 17L11.25 4.81066L9.53033 6.53033C9.23744 6.82322 8.76256 6.82322 8.46967 6.53033Z" fill="currentColor"/>
</svg>
