<svg width="17" height="16" viewBox="0 0 17 16" fill="none"
    xmlns="http://www.w3.org/2000/svg">
    <path d="M12.4401 15.1133C12.0867 15.1133 11.6334 15 11.0667 14.6667L9.07341 13.4867C8.86674 13.3667 8.46674 13.3667 8.26674 13.4867L6.26674 14.6667C5.08674 15.3667 4.39341 15.0867 4.08008 14.86C3.77341 14.6333 3.29341 14.0533 3.60675 12.72L4.08008 10.6733C4.13341 10.46 4.02675 10.0933 3.86675 9.93334L2.21341 8.28001C1.38675 7.45334 1.45341 6.74667 1.56675 6.40001C1.68008 6.05334 2.04008 5.44 3.18675 5.24667L5.31341 4.89334C5.51341 4.86 5.80008 4.64667 5.88674 4.46667L7.06675 2.11334C7.60008 1.04 8.30008 0.880005 8.66675 0.880005C9.03341 0.880005 9.73341 1.04 10.2667 2.11334L11.4401 4.46C11.5334 4.64 11.8201 4.85334 12.0201 4.88667L14.1467 5.24001C15.3001 5.43334 15.6601 6.04667 15.7667 6.39334C15.8734 6.74001 15.9401 7.44667 15.1201 8.27334L13.4667 9.93334C13.3067 10.0933 13.2067 10.4533 13.2534 10.6733L13.7267 12.72C14.0334 14.0533 13.5601 14.6333 13.2534 14.86C13.0867 14.98 12.8201 15.1133 12.4401 15.1133ZM8.66675 12.3933C8.99341 12.3933 9.32008 12.4733 9.58008 12.6267L11.5734 13.8067C12.1534 14.1533 12.5201 14.1533 12.6601 14.0533C12.8001 13.9533 12.9001 13.6 12.7534 12.9467L12.2801 10.9C12.1534 10.3467 12.3601 9.63334 12.7601 9.22667L14.4134 7.57334C14.7401 7.24667 14.8867 6.92667 14.8201 6.70667C14.7467 6.48667 14.4401 6.30667 13.9867 6.23334L11.8601 5.88C11.3467 5.79334 10.7867 5.38 10.5534 4.91334L9.38008 2.56667C9.16674 2.14 8.90008 1.88667 8.66675 1.88667C8.43341 1.88667 8.16674 2.14 7.96008 2.56667L6.78008 4.91334C6.54674 5.38 5.98674 5.79334 5.47341 5.88L3.35341 6.23334C2.90008 6.30667 2.59341 6.48667 2.52008 6.70667C2.44675 6.92667 2.60008 7.25334 2.92675 7.57334L4.58008 9.22667C4.98008 9.62667 5.18675 10.3467 5.06008 10.9L4.58675 12.9467C4.43341 13.6067 4.54008 13.9533 4.68008 14.0533C4.82008 14.1533 5.18008 14.1467 5.76675 13.8067L7.76008 12.6267C8.01341 12.4733 8.34008 12.3933 8.66675 12.3933Z" fill="currentColor"/>
</svg>
